<svg xmlns="http://www.w3.org/2000/svg" viewBox="0 0 47.22 47.22"><defs><style>.cls-1{fill:#fbb03b;}</style></defs><g id="Layer_2" data-name="Layer 2"><g id="Layer_1-2" data-name="Layer 1"><circle class="cls-1" cx="23.61" cy="23.61" r="23.61"/><polygon points="21.99 27.04 16.34 31.84 36.82 31.84 36.82 20.45 29.51 26.85 21.99 27.04"/><path d="M10.8,15.39V31.84h3.73L22,25.49l7.52-.18,7.31-6.4V15.39Zm5,6.59H12.75V20.21h3.08Zm0-3H12.75V17.19h3.08Zm4.73,3H17.48V20.21h3.08Zm0-3H17.48V17.19h3.08Zm4.73,3H22.22V20.21h3.07Zm0-3H22.22V17.19h3.07ZM30,22H26.94V20.21H30Zm0-3H26.94V17.19H30Zm4.85,0H31.8V17.19h3.07Z"/></g></g></svg>