<svg xmlns="http://www.w3.org/2000/svg" viewBox="0 0 47.22 47.22"><defs><style>.cls-1{fill:#fbb03b;}</style></defs><g id="Layer_2" data-name="Layer 2"><g id="Layer_1-2" data-name="Layer 1"><circle class="cls-1" cx="23.61" cy="23.61" r="23.61"/><path d="M28.48,25.68,22.9,28.45V25.68l-4.77,2.37-.81-10.72H14.53L13.16,35.47h20.9V25.68l-5.58,2.77Zm-6.91,7h-1.4v-1.4h1.4Zm0-2.8h-1.4V28.48h1.4Zm9.76-1.39h1.39v1.39H31.33Zm0,2.79h1.39v1.4H31.33Zm-4.19,1.4H25.75v-1.4h1.39Zm0-2.8H25.75V28.48h1.39ZM17.32,15.94a1.4,1.4,0,0,1,1.4-1.4h.12a2.09,2.09,0,0,1,2-1.39,2,2,0,0,1,1,.23,2.79,2.79,0,0,1,5.33,1.16,1.4,1.4,0,0,1,0,2.79H18.72A1.4,1.4,0,0,1,17.32,15.94Zm12,1.57a1.31,1.31,0,0,1,.59.14,1.74,1.74,0,0,1,3.33.73.87.87,0,0,1,0,1.74H28a.87.87,0,0,1,0-1.74H28A1.3,1.3,0,0,1,29.27,17.51Z"/></g></g></svg>