<svg xmlns="http://www.w3.org/2000/svg" viewBox="0 0 47.22 47.22"><defs><style>.cls-1{fill:#fbb03b;}</style></defs><g id="Layer_2" data-name="Layer 2"><g id="Layer_1-2" data-name="Layer 1"><circle class="cls-1" cx="23.61" cy="23.61" r="23.61"/><path d="M35.33,19.79h1.85V13.57h0V12.36H28.12v7.43h7.21Zm-.44-3a.72.72,0,0,1-.61.77H31.13c-.3,0-.58-.36-.58-.77V13.57h4.34Z"/><rect x="26.02" y="10.5" width="13.09" height="1.22"/><path d="M37.41,28.83v-8.3H36.19v.21l-3.44,3.44-3.52-3.52v-.13H28v3.3A39.65,39.65,0,0,1,22,16.23v-6H20.71l-.17,0-1.25.3L18,10.22a9.9,9.9,0,0,0-1.53.6l-.09,2.78L18,12.78l1.49.35.8-.21.49-.12v3.85A42.85,42.85,0,0,1,9.84,28.23L9,33.73h9l3.44-8.92,3.45,8.92h9l-.81-5.5-.1-.08a.51.51,0,0,1-.29-.22c-.39-.3-.75-.6-1.12-.9l1.14-1.13,3.44,3.44v4.28h1.22V28.9l0,0Zm-6.75-2.57s-.07,0-.1-.08c-.46-.4-.9-.79-1.33-1.19V22.38L31.89,25ZM33.61,25l2.58-2.59v5.17Z"/></g></g></svg>