<svg xmlns="http://www.w3.org/2000/svg" viewBox="0 0 47.22 47.22"><defs><style>.cls-1{fill:#fbb03b;}.cls-2{fill-rule:evenodd;}</style></defs><g id="Layer_2" data-name="Layer 2"><g id="Layer_1-2" data-name="Layer 1"><circle class="cls-1" cx="23.61" cy="23.61" r="23.61"/><path d="M16,16.08v-2.9H11.15v4.88h1.14a.35.35,0,0,1,.35.35V30.63H12V18.75H10.81a.34.34,0,0,1-.34-.34V12.83a.34.34,0,0,1,.34-.34h5.54a.34.34,0,0,1,.34.34v3.31a1.77,1.77,0,0,0-.52-.07H16Z"/><path d="M15.78,22.93a.23.23,0,1,1,0,.46H11.46v7.24H11V23.16a.23.23,0,0,1,.24-.23Z"/><path d="M21.52,15.93V14.49a.34.34,0,0,1,.34-.35h3.05v.69h-2.7v1.06l-.23,0h0a1.76,1.76,0,0,0-.46.06Zm6.08-1.79h4.31a.34.34,0,0,1,.34.35v8.93H32l-.4,0v-8.6h-4Z"/><path class="cls-2" d="M16.17,16.21h0a2.1,2.1,0,0,1,2.09,2.09V30.63H14.08V18.3a2.1,2.1,0,0,1,2.09-2.09Z"/><path class="cls-2" d="M13.94,24.46H18.4a.34.34,0,0,1,.34.34h0a.35.35,0,0,1-.34.35H13.94a.35.35,0,0,1-.35-.35h0a.35.35,0,0,1,.35-.34Zm0-2.93H18.4a.35.35,0,0,1,.34.35h0a.35.35,0,0,1-.34.35H13.94a.35.35,0,0,1-.35-.35h0a.35.35,0,0,1,.35-.35Zm0-2.92H18.4a.35.35,0,0,1,.34.35h0a.35.35,0,0,1-.34.35H13.94a.35.35,0,0,1-.35-.35h0a.35.35,0,0,1,.35-.35Z"/><path class="cls-2" d="M22,16.21h0a2.1,2.1,0,0,1,2.09,2.09V30.63H19.89V18.3A2.1,2.1,0,0,1,22,16.21Z"/><path class="cls-2" d="M19.75,27.33h4.46a.35.35,0,0,1,.35.35h0a.35.35,0,0,1-.35.35H19.75a.35.35,0,0,1-.35-.35h0a.35.35,0,0,1,.35-.35Zm0-2.87h4.46a.35.35,0,0,1,.35.34h0a.35.35,0,0,1-.35.35H19.75a.35.35,0,0,1-.35-.35h0a.35.35,0,0,1,.35-.34Zm0-2.93h4.46a.35.35,0,0,1,.35.35h0a.35.35,0,0,1-.35.35H19.75a.35.35,0,0,1-.35-.35h0a.35.35,0,0,1,.35-.35Zm0-2.92h4.46a.35.35,0,0,1,.35.35h0a.35.35,0,0,1-.35.35H19.75A.35.35,0,0,1,19.4,19h0a.35.35,0,0,1,.35-.35Z"/><polygon class="cls-2" points="26.34 9.9 26.25 9.9 25.2 9.9 25.2 30.63 26.25 30.63 26.34 30.63 27.28 30.63 27.28 9.9 26.34 9.9"/><path class="cls-2" d="M25.14,15.82h2.21a.22.22,0,0,1,.22.22h0a.22.22,0,0,1-.22.22H25.14a.22.22,0,0,1-.22-.22h0a.22.22,0,0,1,.22-.22Zm0,3h2.21a.22.22,0,0,1,.22.22h0a.22.22,0,0,1-.22.22H25.14a.22.22,0,0,1-.22-.22h0a.22.22,0,0,1,.22-.22Zm0,3h2.21a.22.22,0,0,1,.22.22h0a.22.22,0,0,1-.22.22H25.14a.22.22,0,0,1-.22-.22h0a.22.22,0,0,1,.22-.22Zm0,3h2.21a.22.22,0,0,1,.22.22h0a.22.22,0,0,1-.22.22H25.14a.22.22,0,0,1-.22-.22h0a.22.22,0,0,1,.22-.22Zm0,3h2.21a.22.22,0,0,1,.22.22h0a.22.22,0,0,1-.22.22H25.14a.22.22,0,0,1-.22-.22h0a.22.22,0,0,1,.22-.22Zm0-15h2.21a.22.22,0,0,1,.22.22h0a.22.22,0,0,1-.22.22H25.14a.22.22,0,0,1-.22-.22h0a.22.22,0,0,1,.22-.22Z"/><path class="cls-2" d="M28.46,27h7.06a3.58,3.58,0,0,0-7.13,0Z"/><path class="cls-2" d="M35.46,27.74H28.4a3.59,3.59,0,0,0,2,2.9h3.1a3.61,3.61,0,0,0,2-2.9Z"/><path class="cls-2" d="M9.53,31.14H37.69a.39.39,0,0,1,.39.4v1.57a.38.38,0,0,1-.39.39H9.53a.39.39,0,0,1-.39-.39V31.54a.4.4,0,0,1,.39-.4Z"/></g></g></svg>