<svg xmlns="http://www.w3.org/2000/svg" xmlns:xlink="http://www.w3.org/1999/xlink" viewBox="0 0 47.22 47.22"><defs><style>.cls-1{fill:none;}.cls-2{fill:#fbb03b;}.cls-3{fill-rule:evenodd;}.cls-4{clip-path:url(#clip-path);}</style><clipPath id="clip-path"><rect class="cls-1" x="10.27" y="8.23" width="26.69" height="25.72"/></clipPath></defs><g id="Layer_2" data-name="Layer 2"><g id="Layer_1-2" data-name="Layer 1"><circle class="cls-2" cx="23.61" cy="23.61" r="23.61"/><path class="cls-3" d="M30.94,25.73v-1a.85.85,0,0,1,.85-.84h0a.85.85,0,0,1,.85.84v1a.86.86,0,0,1-.85.85h0a.86.86,0,0,1-.85-.85Z"/><path class="cls-3" d="M30.82,19V18a.86.86,0,0,1,.85-.85h0a.86.86,0,0,1,.86.85v1a.86.86,0,0,1-.86.85h0a.86.86,0,0,1-.85-.85Z"/><path class="cls-3" d="M14.25,19v-1a.86.86,0,0,1,.86-.85h0a.85.85,0,0,1,.85.85v1a.86.86,0,0,1-.85.86h0a.87.87,0,0,1-.86-.86Z"/><path class="cls-3" d="M14.27,25.55v-1a.86.86,0,0,1,.86-.84h0a.85.85,0,0,1,.85.84v1a.86.86,0,0,1-.85.85h0a.86.86,0,0,1-.86-.85Z"/><g class="cls-4"><path d="M31.15,39.25A.49.49,0,0,1,30.7,39L25.76,27.52H21L16,39a.49.49,0,0,1-.89-.39l5.06-11.74a.51.51,0,0,1,.45-.29h5.42a.5.5,0,0,1,.45.29L31.6,38.57a.49.49,0,0,1-.26.64A.43.43,0,0,1,31.15,39.25Z"/><path d="M26.08,27.52H20.66a.49.49,0,0,1-.49-.49V22.78a.36.36,0,0,1,0-.1l.48-2.13a.49.49,0,0,1,.47-.38H25.6a.48.48,0,0,1,.47.38l.49,2.13a.34.34,0,0,1,0,.1V27A.49.49,0,0,1,26.08,27.52Zm-4.93-1h4.44v-3.7l-.38-1.69H21.53l-.38,1.69Z"/><path d="M25.12,14.78a.49.49,0,0,1-.47-.34l-1-3.2h-.53l-1,3.2a.49.49,0,1,1-.93-.29l1.13-3.54a.48.48,0,0,1,.46-.34H24a.51.51,0,0,1,.47.34l1.12,3.54a.49.49,0,0,1-.32.61A.32.32,0,0,1,25.12,14.78Z"/><path d="M17.21,39.25H15.6a.49.49,0,0,1-.49-.49.48.48,0,0,1,.49-.48H17l4.48-5.15a.5.5,0,0,1,.69-.05.48.48,0,0,1,.05.69l-4.63,5.31A.46.46,0,0,1,17.21,39.25Z"/><path d="M31.15,39.25H29.54a.48.48,0,0,1-.37-.17l-4.63-5.31a.49.49,0,1,1,.74-.64l4.48,5.15h1.39a.48.48,0,0,1,.49.48A.49.49,0,0,1,31.15,39.25Z"/><path d="M28.85,33.94h-11a.49.49,0,0,1-.3-.87l5-3.92-2.22-1.74a.48.48,0,0,1-.08-.68.49.49,0,0,1,.68-.09l2.41,1.89,2.41-1.89a.5.5,0,0,1,.69.09.49.49,0,0,1-.09.68l-2.22,1.74,5,3.92a.49.49,0,0,1-.31.87ZM19.3,33h8.14l-4.07-3.19Z"/><path d="M26.08,27.52a.5.5,0,0,1-.3-.11l-5.42-4.24a.5.5,0,0,1-.16-.55.49.49,0,0,1,.46-.32h5.42a.48.48,0,0,1,.49.48.49.49,0,0,1-.49.49h-4l4.31,3.37a.49.49,0,0,1-.3.88Z"/><path d="M25.6,21.15H21.14a.49.49,0,0,1-.48-.49V16.42a.37.37,0,0,1,0-.11l.48-2.12a.49.49,0,0,1,.48-.38h3.49a.49.49,0,0,1,.47.38l.48,2.12a.36.36,0,0,1,0,.11v4.24A.49.49,0,0,1,25.6,21.15Zm-4-1h3.48v-3.7l-.38-1.69H22l-.39,1.69Z"/><path d="M31.73,23.27H26.08a.49.49,0,0,1-.49-.49.48.48,0,0,1,.49-.48h2.75l-3.39-1.18a.49.49,0,1,1,.32-.92l6.13,2.12a.49.49,0,0,1,.32.54A.48.48,0,0,1,31.73,23.27Z"/><path d="M25.9,16.9H15a.48.48,0,0,1-.48-.41.49.49,0,0,1,.33-.54l6.62-2.12a.49.49,0,0,1,.3.93l-3.65,1.17H25.9a.49.49,0,0,1,.49.49A.48.48,0,0,1,25.9,16.9Z"/><path d="M31.73,16.9H26.08a.48.48,0,0,1-.49-.48.49.49,0,0,1,.49-.49h2.54L25,14.76a.49.49,0,0,1-.32-.61.5.5,0,0,1,.62-.32L31.88,16a.49.49,0,0,1-.15.95Z"/><path d="M20.66,23.27H15a.49.49,0,0,1-.16-.95l6-2.08,4.37-4.18a.5.5,0,0,1,.69,0,.49.49,0,0,1,0,.69L21.48,21a.42.42,0,0,1-.18.11L17.91,22.3h2.75a.48.48,0,0,1,.49.48A.49.49,0,0,1,20.66,23.27Z"/></g></g></g></svg>