<svg xmlns="http://www.w3.org/2000/svg" viewBox="0 0 47.22 47.22"><defs><style>.cls-1{fill:#fbb03b;}</style></defs><g id="Layer_2" data-name="Layer 2"><g id="Layer_1-2" data-name="Layer 1"><circle class="cls-1" cx="23.61" cy="23.61" r="23.61"/><path d="M26.79,23.2V20.08H20.43V23.2a5.62,5.62,0,0,0-1.17,1.06H16.4v7.25h2.86a5.66,5.66,0,0,0,8.7,0h2.87V24.26H28A5.62,5.62,0,0,0,26.79,23.2Zm-6.74-5.79a1,1,0,1,0,0,2h7.13a1,1,0,0,0,0-2Zm12.6,5.32a1.14,1.14,0,0,0-1.14,1.14v8a1.15,1.15,0,0,0,2.29,0v-8A1.14,1.14,0,0,0,32.65,22.73Zm-18.08,0a1.15,1.15,0,0,0-1.15,1.14v8a1.15,1.15,0,0,0,2.3,0v-8A1.15,1.15,0,0,0,14.57,22.73Zm3.62-9.46h.5l3.84,2.86v.77h2.16v-.77l3.84-2.86h.37a.69.69,0,1,0,0-1.38H18.19a.69.69,0,1,0,0,1.38Zm8.74,0-2.24,1.42v-.84H22.53v.84l-2.24-1.42Z"/></g></g></svg>