<svg xmlns="http://www.w3.org/2000/svg" viewBox="0 0 47.22 47.22"><defs><style>.cls-1{fill:#fbb03b;}</style></defs><g id="Layer_2" data-name="Layer 2"><g id="Layer_1-2" data-name="Layer 1"><circle class="cls-1" cx="23.61" cy="23.61" r="23.61"/><path d="M24.38,26.41H28v1.22H24.38Zm4.86-12.14H22.56V16.7h6.68Zm10,8.2a5.14,5.14,0,0,0-5-5.16h-5V27.63h5A5.14,5.14,0,0,0,39.23,22.47ZM28,20.34H24.38v1.82H28Zm0,3H24.38V25.2H28Zm-20-.9a5.14,5.14,0,0,1,5-5.16h9.59V27.63H13A5.14,5.14,0,0,1,8,22.47Zm30.37,8.69a2.74,2.74,0,0,1-2.7,2.72A2.59,2.59,0,0,1,33,31.29c0-.52.13-1.24.39-1.24h-1c.26,0,.41.76.41,1.28a2.65,2.65,0,0,1-5.3,0c0-.52.15-1.25.4-1.25H19.3c.25,0,.4.76.4,1.28a2.65,2.65,0,0,1-5.3,0c0-.52.15-1.25.41-1.25h-1c.24,0,.4.72.4,1.24a2.53,2.53,0,0,1-2.64,2.53,2.8,2.8,0,0,1,0-5.59H35.92v.21A2.79,2.79,0,0,1,38.36,31.16Zm-25.53,0a1.26,1.26,0,1,0-1.25,1.3A1.28,1.28,0,0,0,12.83,31.13Zm5.48,0a1.26,1.26,0,1,0-1.26,1.3A1.28,1.28,0,0,0,18.31,31.13Zm13.12,0a1.26,1.26,0,1,0-1.26,1.3A1.29,1.29,0,0,0,31.43,31.13Zm5.47,0a1.26,1.26,0,1,0-1.26,1.3A1.29,1.29,0,0,0,36.9,31.13ZM28,17.31H24.38v1.82H28Z"/></g></g></svg>