<?xml version="1.0" encoding="iso-8859-1"?>
<!-- Generator: Adobe Illustrator 19.0.0, SVG Export Plug-In . SVG Version: 6.00 Build 0)  -->
<svg version="1.1" id="Layer_1" xmlns="http://www.w3.org/2000/svg" xmlns:xlink="http://www.w3.org/1999/xlink" x="0px" y="0px"
	 viewBox="0 0 503.467 503.467" style="enable-background:new 0 0 503.467 503.467;" xml:space="preserve">
<g transform="translate(1 1)">
	<path style="fill:#C49AE9;" d="M498.2,395.8v34.133c0,10.24-6.827,17.067-17.067,17.067H3.267v-51.2h102.4H191H498.2z"/>
	<path style="fill:#7EE1E6;" d="M276.333,284.867V216.6c0-4.267-3.413-8.533-8.533-8.533h-34.133c-5.12,0-8.533,4.267-8.533,8.533
		v68.267c0,4.267,3.413,8.533,8.533,8.533H267.8C272.92,293.4,276.333,289.133,276.333,284.867 M498.2,361.667V395.8H191V216.6
		c0-4.267-3.413-8.533-8.533-8.533H114.2c-4.267,0-8.533,4.267-8.533,8.533v179.2H3.267V293.4H63c4.267,0,8.533-4.267,8.533-8.533
		V216.6c0-4.267-4.267-8.533-8.533-8.533H3.267V139.8h102.4h221.867c23.893,0,34.133,17.067,34.133,17.067l36.693,49.493
		l-2.56,1.707h-59.733c-5.12,0-8.533,4.267-8.533,8.533v68.267c0,4.267,3.413,8.533,8.533,8.533h76.8h51.2l25.6,34.133
		C489.667,327.533,498.2,337.773,498.2,361.667"/>
	<path style="fill:#E4F2DE;" d="M71.533,216.6v68.267c0,4.267-4.267,8.533-8.533,8.533H3.267v-85.333H63
		C67.267,208.067,71.533,212.333,71.533,216.6z M276.333,216.6v68.267c0,4.267-3.413,8.533-8.533,8.533h-34.133
		c-5.12,0-8.533-4.267-8.533-8.533V216.6c0-4.267,3.413-8.533,8.533-8.533H267.8C272.92,208.067,276.333,212.333,276.333,216.6z
		 M191,216.6v179.2h-85.333V216.6c0-4.267,4.267-8.533,8.533-8.533h68.267C187.587,208.067,191,212.333,191,216.6z M412.867,293.4
		h-76.8c-5.12,0-8.533-4.267-8.533-8.533V216.6c0-4.267,3.413-8.533,8.533-8.533H395.8l2.56-1.707l65.707,87.04H412.867z"/>
	<path style="fill:#C49AE9;" d="M105.667,54.467V139.8H3.267V54.467c0-28.16,23.04-51.2,51.2-51.2S105.667,26.307,105.667,54.467"/>
</g>
<path style="fill:#51565F;" d="M499.2,503.467H4.267C1.707,503.467,0,501.76,0,499.2V55.467C0,24.747,24.747,0,55.467,0
	s55.467,24.747,55.467,55.467v51.2c0,2.56-1.707,4.267-4.267,4.267s-4.267-1.707-4.267-4.267v-51.2
	c0-25.6-21.333-46.933-46.933-46.933S8.533,29.867,8.533,55.467v439.467h76.8v-12.8c0-2.56,1.707-4.267,4.267-4.267
	c2.56,0,4.267,1.707,4.267,4.267v12.8h76.8v-12.8c0-2.56,1.707-4.267,4.267-4.267c2.56,0,4.267,1.707,4.267,4.267v12.8H256v-12.8
	c0-2.56,1.707-4.267,4.267-4.267s4.267,1.707,4.267,4.267v12.8h76.8v-12.8c0-2.56,1.707-4.267,4.267-4.267s4.267,1.707,4.267,4.267
	v12.8h76.8v-12.8c0-2.56,1.707-4.267,4.267-4.267s4.267,1.707,4.267,4.267v12.8h64c2.56,0,4.267,1.707,4.267,4.267
	C503.467,501.76,501.76,503.467,499.2,503.467z M482.133,452.267H38.4c-2.56,0-4.267-1.707-4.267-4.267
	c0-2.56,1.707-4.267,4.267-4.267h443.733c7.68,0,12.8-5.12,12.8-12.8v-29.867h-12.8c-2.56,0-4.267-1.707-4.267-4.267
	s1.707-4.267,4.267-4.267h12.8v-29.867c0-22.187-7.68-31.573-7.68-31.573l-24.747-32.427h-125.44c-6.827,0-12.8-5.973-12.8-12.8
	V217.6c0-6.827,5.973-12.8,12.8-12.8h25.6c2.56,0,4.267,1.707,4.267,4.267c0,2.56-1.707,4.267-4.267,4.267h-25.6
	c-2.56,0-4.267,1.707-4.267,4.267v68.267c0,2.56,1.707,4.267,4.267,4.267H409.6v-12.8c0-2.56,1.707-4.267,4.267-4.267
	s4.267,1.707,4.267,4.267v12.8h38.4l-97.28-129.707c-0.853-0.853-10.24-15.36-30.72-15.36H38.4c-2.56,0-4.267-1.707-4.267-4.267
	c0-2.56,1.707-4.267,4.267-4.267h290.133c25.6,0,37.547,17.92,37.547,18.773l102.4,135.68l0,0l25.6,34.133
	c0,0,9.387,11.093,9.387,36.693v68.267C503.467,442.88,494.08,452.267,482.133,452.267z M448,401.067H38.4
	c-2.56,0-4.267-1.707-4.267-4.267s1.707-4.267,4.267-4.267H448c2.56,0,4.267,1.707,4.267,4.267S450.56,401.067,448,401.067z
	 M192,366.933c-2.56,0-4.267-1.707-4.267-4.267V217.6c0-2.56-1.707-4.267-4.267-4.267H115.2c-2.56,0-4.267,1.707-4.267,4.267
	v145.067c0,2.56-1.707,4.267-4.267,4.267s-4.267-1.707-4.267-4.267V217.6c0-6.827,5.973-12.8,12.8-12.8h68.267
	c6.827,0,12.8,5.973,12.8,12.8v145.067C196.267,365.227,194.56,366.933,192,366.933z M268.8,298.667h-34.133
	c-6.827,0-12.8-5.973-12.8-12.8V217.6c0-6.827,5.973-12.8,12.8-12.8H268.8c6.827,0,12.8,5.973,12.8,12.8v68.267
	C281.6,292.693,275.627,298.667,268.8,298.667z M234.667,213.333c-2.56,0-4.267,1.707-4.267,4.267v68.267
	c0,2.56,1.707,4.267,4.267,4.267H268.8c2.56,0,4.267-1.707,4.267-4.267V217.6c0-2.56-1.707-4.267-4.267-4.267H234.667z M64,298.667
	H38.4c-2.56,0-4.267-1.707-4.267-4.267c0-2.56,1.707-4.267,4.267-4.267H64c2.56,0,4.267-1.707,4.267-4.267V217.6
	c0-2.56-1.707-4.267-4.267-4.267H38.4c-2.56,0-4.267-1.707-4.267-4.267c0-2.56,1.707-4.267,4.267-4.267H64
	c6.827,0,12.8,5.973,12.8,12.8v68.267C76.8,292.693,70.827,298.667,64,298.667z"/>
</svg>
