<svg xmlns="http://www.w3.org/2000/svg" viewBox="0 0 554 203.5" id='train'><defs><style>.cls-1,.cls-6{fill:none;}.cls-1{stroke:#000;stroke-width:0.5px;}.cls-1,.cls-3,.cls-6{stroke-miterlimit:10;}.cls-2,.cls-3{fill:#3587a4;}.cls-3,.cls-6{stroke:#fff;}.cls-4{fill:#fff;}.cls-5{fill:#ffcf56;}.cls-6{stroke-width:2px;}</style></defs><g id="Layer_2" data-name="Layer 2"><g id="main"><rect class="cls-1" x="55.5" y="25.5" width="103" height="56" rx="12.62"/><rect class="cls-1" x="391.5" y="25.5" width="103" height="56" rx="12.62"/><path class="cls-2" d="M51.85,180.5h43.3a3.92,3.92,0,0,1,3.73,5.21,27,27,0,0,1-50.76,0A3.92,3.92,0,0,1,51.85,180.5Z"/><path class="cls-2" d="M100.5,176.5h-54c0-.17,0-.34,0-.5h54C100.5,176.16,100.5,176.33,100.5,176.5Z"/><path class="cls-2" d="M116.85,180.5h43.3a3.92,3.92,0,0,1,3.73,5.21,27,27,0,0,1-50.76,0A3.92,3.92,0,0,1,116.85,180.5Z"/><path class="cls-2" d="M165.5,176.5h-54c0-.17,0-.34,0-.5h54C165.5,176.16,165.5,176.33,165.5,176.5Z"/><path class="cls-2" d="M388.85,180.5h43.3a3.92,3.92,0,0,1,3.73,5.21,27,27,0,0,1-50.76,0A3.92,3.92,0,0,1,388.85,180.5Z"/><path class="cls-2" d="M437.5,176.5h-54c0-.17,0-.34,0-.5h54C437.5,176.16,437.5,176.33,437.5,176.5Z"/><path class="cls-2" d="M453.85,180.5h43.3a3.92,3.92,0,0,1,3.73,5.21,27,27,0,0,1-50.76,0A3.92,3.92,0,0,1,453.85,180.5Z"/><path class="cls-2" d="M502.5,176.5h-54c0-.17,0-.34,0-.5h54C502.5,176.16,502.5,176.33,502.5,176.5Z"/><path class="cls-3" d="M276.28,141.77,222.5,88v18.38l.64.64,42.05,42.06-40.6,26.74L222.8,177h23.64l28.14-18.53,2.42-1.6V142.49ZM526.45.5H27.55A27,27,0,0,0,.5,27.55v122.9A27,27,0,0,0,27.55,177.5h498.9a27,27,0,0,0,27-27.05V27.55A27,27,0,0,0,526.45.5ZM55.5,38.12A12.62,12.62,0,0,1,68.12,25.5h77.76A12.62,12.62,0,0,1,158.5,38.12V68.88A12.62,12.62,0,0,1,145.88,81.5H68.12A12.62,12.62,0,0,1,55.5,68.88Zm336,0A12.62,12.62,0,0,1,404.12,25.5h77.76A12.62,12.62,0,0,1,494.5,38.12V68.88A12.62,12.62,0,0,1,481.88,81.5H404.12A12.62,12.62,0,0,1,391.5,68.88Z"/><line class="cls-1" x1="276.23" y1="153.5" x2="276.2" y2="153.48"/><path class="cls-4" d="M311.42,25.5H242.58A24.08,24.08,0,0,0,218.5,49.58V177.5h117V49.58A24.08,24.08,0,0,0,311.42,25.5ZM276.28,141.77,222.5,88v18.38l.64.64,42.05,42.06-40.6,26.74L222.8,177h23.64l28.14-18.53,2.42-1.6V142.49Z"/><path class="cls-5" d="M343,88.5H553a0,0,0,0,1,0,0v13a0,0,0,0,1,0,0H343A3.51,3.51,0,0,1,339.5,98V92A3.51,3.51,0,0,1,343,88.5Z"/><path class="cls-5" d="M4.51,88.5h210a0,0,0,0,1,0,0v13a0,0,0,0,1,0,0H4.51A3.51,3.51,0,0,1,1,98V92A3.51,3.51,0,0,1,4.51,88.5Z" transform="translate(215.5 190) rotate(-180)"/><path class="cls-2" d="M243.52,28.5h67a21.27,21.27,0,0,1,21.27,21.27V177a0,0,0,0,1,0,0H222.25a0,0,0,0,1,0,0V49.77A21.27,21.27,0,0,1,243.52,28.5Z"/><path class="cls-5" d="M274,144.67v9.71a4.65,4.65,0,0,1-2,3.86l-.33.23-26.05,18.39-.45.14h-19.9a.85.85,0,0,1-.45-1.55l36.63-24.94a2.17,2.17,0,0,0,.32-3.27L224,108.14a6.13,6.13,0,0,1-1.7-4.25V90a.81.81,0,0,1,1.39-.6L272.51,141A5.37,5.37,0,0,1,274,144.67Z"/><path class="cls-5" d="M280,144.67v9.71a4.65,4.65,0,0,0,2,3.86l.33.23,26.05,18.39.45.14h19.9a.85.85,0,0,0,.45-1.55l-36.63-24.94a2.17,2.17,0,0,1-.32-3.27l37.81-39.1a6.13,6.13,0,0,0,1.7-4.25V90a.81.81,0,0,0-1.39-.6L281.49,141A5.37,5.37,0,0,0,280,144.67Z"/><rect class="cls-4" x="230" y="39" width="39" height="40" rx="12.32"/><rect class="cls-4" x="285" y="39" width="39" height="40" rx="12.32"/><line class="cls-6" x1="277" y1="28" x2="277" y2="177"/></g></g></svg>